<svg xmlns="http://www.w3.org/2000/svg" version="1.1" xmlns:xlink="http://www.w3.org/1999/xlink" xmlns:svgjs="http://svgjs.dev/svgjs" width="1440" height="250" preserveAspectRatio="none" viewBox="0 0 1440 250">
    <g mask="url(&quot;#SvgjsMask1020&quot;)" fill="none">
        <rect width="1440" height="250" x="0" y="0" fill="#1b1c21"></rect>
        <path d="M33 250L283 0L539.5 0L289.5 250z" fill="url(&quot;#SvgjsLinearGradient1021&quot;)"></path>
        <path d="M267.6 250L517.6 0L685.6 0L435.6 250z" fill="url(&quot;#SvgjsLinearGradient1021&quot;)"></path>
        <path d="M499.20000000000005 250L749.2 0L863.2 0L613.2 250z" fill="url(&quot;#SvgjsLinearGradient1021&quot;)"></path>
        <path d="M718.8000000000001 250L968.8000000000001 0L1060.3000000000002 0L810.3000000000001 250z" fill="url(&quot;#SvgjsLinearGradient1021&quot;)"></path>
        <path d="M1433 250L1183 0L938.5 0L1188.5 250z" fill="url(&quot;#SvgjsLinearGradient1022&quot;)"></path>
        <path d="M1170.4 250L920.4000000000001 0L768.9000000000001 0L1018.9000000000001 250z" fill="url(&quot;#SvgjsLinearGradient1022&quot;)"></path>
        <path d="M947.8 250L697.8 0L433.79999999999995 0L683.8 250z" fill="url(&quot;#SvgjsLinearGradient1022&quot;)"></path>
        <path d="M698.1999999999999 250L448.19999999999993 0L266.69999999999993 0L516.6999999999999 250z" fill="url(&quot;#SvgjsLinearGradient1022&quot;)"></path>
        <path d="M1256.82485919706 250L1440 66.82485919706008L1440 250z" fill="url(&quot;#SvgjsLinearGradient1021&quot;)"></path>
        <path d="M0 250L183.17514080293992 250L 0 66.82485919706008z" fill="url(&quot;#SvgjsLinearGradient1022&quot;)"></path>
    </g>
    <defs>
        <mask id="SvgjsMask1020">
            <rect width="1440" height="250" fill="#ffffff"></rect>
        </mask>
        <linearGradient x1="0%" y1="100%" x2="100%" y2="0%" id="SvgjsLinearGradient1021">
            <stop stop-color="rgba(255, 255, 255, 0.2)" offset="0"></stop>
            <stop stop-opacity="0" stop-color="rgba(255, 255, 255, 0.2)" offset="0.66"></stop>
        </linearGradient>
        <linearGradient x1="100%" y1="100%" x2="0%" y2="0%" id="SvgjsLinearGradient1022">
            <stop stop-color="rgba(255, 255, 255, 0.2)" offset="0"></stop>
            <stop stop-opacity="0" stop-color="rgba(255, 255, 255, 0.2)" offset="0.66"></stop>
        </linearGradient>
    </defs>
</svg>